<svg width="460" height="185" xmlns="http://www.w3.org/2000/svg" xmlns:xlink="http://www.w3.org/1999/xlink"><defs><path id="a" d="M.084.501h36.34v31.076H.085z"/></defs><g fill="none" fill-rule="evenodd"><path d="M125.798 38.478c2.287-.014 21.234-.22 33.817-1.936.73-6.874.174-20.124-1.335-28.145-.328-1.728-1.45-3.87-4.46-4.563-7.677-1.775-17.833-2.767-28.667-2.847-.937 7.697-1.732 18.357-1.732 30.412l.009 4.607v.083l1.152.105c.554.05.987.52 1.069 1.073.074.545.144 1.22.144 1.22l.003-.009M117.479 46.829l-1.164-.115c-.565-.05-.991-.522-1.053-1.078-.049-.516-.149-1.221-.149-1.221l.002-.007h-.047c-9.237 0-19.653.065-33.094 1.874 1.833 10.292 13.803 33.56 33.072 43.52.954-7.707 2.454-26.493 2.454-38.554l-.017-4.353v-.065l-.002-.014-.002.013M124.794 44.408c.051 0-.057 0 0 0 9.227 0 19.724.059 33.167 1.874-1.827 10.292-13.767 33.56-32.987 43.52-.953-7.707-2.54-26.493-2.54-38.554l.072-4.432h.005l1.103-.108c.56-.053.954-.518 1.026-1.072.057-.5.148-1.221.148-1.221l.006-.007M98.767 22.718c-.035.062-.01.178.022.233a.856.856 0 0 0 .265-.093c.088-.055.106-.092.199-.154-.092-.01-.472-.01-.486.014" fill="#572258"/><path d="M98.76 18.75L80 36.556c13.365 1.794 25.056 1.922 34.263 1.93h.013s.077-.61.142-1.204a1.215 1.215 0 0 1 1.086-1.046l1.01-.1L98.76 18.75zm-1.64 5.218c-.08.295-.08.673.343.673.328 0 .89-.27 1.019-.328l.045.105c-.095.038-.838.63-1.435.632-.34.007-.452-.193-.452-.383 0-.305.24-.406.48-.699zm5.42 3.987c.316-.126.68-.062.68.294 0 .313-.488.498-.589.635-.051.075-.088.124-.11.198-.06-.21.053-.378.053-.52 0-.166-.123-.245-.294-.245-.254 0-.957.61-.536 1.598-.024-.349.104-.581.168-.65a.384.384 0 0 0 .098-.293c.14.249.166.356.166.548 0 .418-.314.51-.166.82.027.086.063.161.105.271 0-.153.023-.279.047-.38.028-.107.19-.301.213-.378a.487.487 0 0 0 .002-.252c.143.163.233.314.233.59 0 .317-.142.494-.185.58-.033.096-.084.177-.095.346-.101.698-.45 1.022-.916 1.022-.287 0-.503-.05-.69-.16 0 .894-1.045.825-1.045 1.418 0 .159.113.354.231.461.113.111.532.265.687.461-.226.018-.47.096-.607.248.381.174.367.389.412.667-.366-.177-.53-.075-.628.018-.11.119-.063.279-.193.453-.056-.14-.147-.265-.307-.265-.158 0-.487.286-.496.375-.006.247-.126.34-.352.364-.17.18-.126.273-.12.437-.148-.135-.174-.226-.114-.464-.172-.075-.15-.211-.1-.334l-.065-.043c-.088.08-.185.19-.41.09-.088.035-.197.162-.22.314-.055-.364.061-.498.121-.546-.031-.078.021-.262.174-.323 0-.04-.008-.06-.012-.076-.13 0-.24-.051-.283-.124-.12-.029-.287.11-.315.2 0-.21.166-.421.29-.47.138-.276.415-.326.575-.168.093.091.309.188.528.188.223 0 .422-.186.473-.253a.487.487 0 0 0 .09-.139c.044-.11.139-.232-.09-.514-.176-.216-.624-.648-.632-.944-.01-.505.223-.793.456-.992h-.182c-.324 0-.358-.203-.687-.203-.248 0-.393.242-.393.443 0 .208.042.256.119.39.102.182.135.28.105.47-.192-.167-.465-.256-.68-.066-.085.238-.136.332-.294.444-.01-.2-.43-.513-.805-.178-.039.096-.066.28-.326.28-.158 0-.136-.037-.212-.059a.607.607 0 0 0-.223.316.502.502 0 0 1 .081-.444c-.021-.099-.01-.31.098-.364-.033-.037-.02-.01-.052-.064-.164.135-.414.15-.524 0-.096.018-.187.077-.288.28-.026-.203.116-.433.216-.494 0-.153.213-.293.432-.244.014-.03-.003-.043.021-.072.025-.032-.01-.024-.01-.024-.066-.025-.267-.03-.258-.298-.128-.045-.248.016-.334.089.086-.217.274-.284.413-.308.056-.084.218-.097.297-.097.158 0 .258.068.286.164.15.265.506.36.839.36a.32.32 0 0 0 .327-.321c0-.198-.34-.762-.34-1.027 0-.257.478-.755.792-.755.968 0 1.19.402 1.403.402.311 0 .345-.059.39-.113-.453-.544-.741-.534-1.175-.825a.917.917 0 0 1-.365-.628c-.272.064-.525.41-.66.628-.055-.099-.148-.171-.263-.171-.21 0-.368.276-.466.51-.065-.275-.227-.516-.54-.516-.175 0-.371.07-.425.177a.39.39 0 0 1-.47.217c-.096.067-.183.088-.25.375-.083-.354 0-.418.053-.504-.054-.236.05-.32.093-.376l-.023-.06c-.14.043-.35.03-.412-.09-.158-.004-.2.013-.334.211.024-.22.15-.407.297-.461.05-.14.243-.19.385-.19.016-.032.033-.032.034-.07a.316.316 0 0 1-.162-.307c-.118-.134-.245-.049-.355-.008.19-.191.412-.27.564-.18.328-.107.44.04.47.22.037.206.367.227.707.227.735 0 1.913-.669 1.824-1.202-.174-.043-.19-.038-.329-.038-.398 0-.885.475-1.28.49.194-.218.076-.435.183-.6-.212-.004-.434.137-.842.095.14-.084.235-.357.235-.461 0-.096 0-.297-.442-.297a.856.856 0 0 1-.245.052c-.106 0-.398-.028-.398-.252-.148-.032-.25.005-.405.117.027-.152.33-.35.422-.361.062-.124.178-.174.24-.166.013-.064.013-.003.013-.083-.147-.021-.336-.073-.335-.317-.105-.093-.17-.117-.405-.053.294-.217.395-.18.487-.142.22-.163.397-.079.458-.008.029-.03.046-.039.058-.061-.045-.154-.018-.305.05-.37-.007-.17-.084-.222-.244-.257.324.005.459.08.568.196.184.024.3.19.302.303.01.299-.32.502.305.824.202.096.47.198.754.276.274.082.616.2.76.2-.11-.155-.072-.327-.249-.493.2-.01.45.052.634.091-.041-.235.024-.245-.142-.393.137.018.33.02.444.035.712.075.722-.273.861-.712-.249.018-.655.07-1.045.329.041-.128-.003-.241-.003-.345 0-.214.172-.254.248-.254.035 0 .145-.022.226-.022.159 0 .378-.166.278-.512-.052-.162-.182-.261-.322-.221-.108.03-.138.03-.29.085-.114.04-.152.136-.168.255-.023-.054-.071-.212-.087-.25-.022-.047-.041-.072-.084-.176-.005-.038-.005-.038-.03-.077-.073-.175.043-.325.194-.348a8.06 8.06 0 0 0 .448-.11c.255-.078.325-.166.383-.297.056-.13.087-.185.322-.185.066 0 .324.008.443.008.344 0 .734-.276.61-.575.235.047.331.425.269.575.116 0 .486-.075.58-.148 0 .257-.212.57-.353.648.182.018.508-.008.604-.088-.062.195-.268.608-.4.67.33.104.532.275.679.664-.243-.098-.387.026-.604-.012.442.505.604 1.272.732 1.462-.125-.062-.358-.195-.535-.26.18.421-.09.828-.052 1.055-.133-.085-.313-.174-.37-.281-.07.167-.223.495-.165.922-.116-.116-.305-.202-.385-.279-.17.236-.269.39-.269.985 0 .812.386 1.588.553 1.901.259.471.323.87.358 1.034.091.32.32.524.629.524.291 0 .54-.265.54-.592 0-.587-.73-.966-.73-1.994 0-.68.53-1.018.55-1.457.01-.377-.345-.136-.609-.313.337-.064.54-.436.842-.415.27.014.335.15.352.284.023.19-.104.396-.145.476.299-.249.43-.638.43-.834 0-.29-.414-.612-.312-1.172.019-.07.017-.068.04-.107.12.63 1.026.789 1.026 1.414 0 .578-.517.47-.806.87zM107.65 3.964c-.037.074-.012.193.024.247a.756.756 0 0 0 .279-.093c.093-.057.116-.097.213-.167-.094-.006-.502-.008-.516.013" fill="#572258"/><g transform="translate(80)"><mask id="b" fill="#fff"><use xlink:href="#a"/></mask><path d="M10.332 5.505c-.055.095-.017.26.036.343.079-.014.267-.071.375-.136.125-.077.162-.133.291-.227-.12-.013-.688-.015-.702.02" fill="#572258" mask="url(#b)"/><path d="M36.418 30.078C36.343 18.648 35.586 7.843 34.7.501 23.903.593 13.712 1.662 6.157 3.374c-2.982.673-4.094 2.86-4.417 4.605C.911 12.444-.133 20.834 0 29.813c.008.967.006.785.044 1.764 1.836-1.774 18.795-18.386 18.795-18.386l17.586 17.708c0-.664 0-.157-.007-.821zM8.494 6.224c-.08.308-.08.701.342.701.33 0 .909-.28 1.023-.337l.049.112c-.099.03-.839.636-1.445.647-.339.011-.457-.204-.457-.402 0-.307.235-.42.488-.72zm5.446 4.13c.325-.135.69-.06.69.295 0 .326-.5.521-.6.674-.05.068-.09.115-.113.195-.056-.213.055-.388.055-.543 0-.169-.12-.254-.295-.254-.254 0-.96.64-.54 1.655-.026-.36.113-.599.17-.66a.467.467 0 0 0 .105-.314c.137.257.165.367.165.568 0 .436-.317.531-.17.852.033.092.058.163.104.275 0-.157.026-.286.05-.395.025-.106.195-.307.214-.39a.59.59 0 0 0 .006-.26c.136.18.233.324.233.61 0 .329-.149.512-.181.61-.042.093-.097.19-.108.342-.092.725-.451 1.062-.914 1.062-.291 0-.513-.044-.697-.16 0 .927-1.048.854-1.048 1.465 0 .165.107.366.225.482.114.109.535.267.7.474-.231.011-.474.095-.609.25.377.193.367.403.412.692-.371-.183-.534-.077-.632.027-.114.121-.06.274-.191.457-.055-.142-.16-.264-.31-.264-.158 0-.495.288-.498.381-.014.258-.133.352-.36.384-.166.184-.127.272-.126.449-.143-.139-.165-.232-.11-.493-.168-.065-.145-.212-.097-.337l-.068-.047c-.087.087-.184.204-.411.095-.09.039-.2.17-.215.333-.062-.384.055-.514.12-.57-.04-.091.017-.267.173-.342 0-.035-.015-.055-.02-.073-.126 0-.237-.057-.276-.133-.125-.023-.29.121-.319.216 0-.225.165-.437.29-.484.146-.29.412-.343.585-.174.089.09.308.188.525.188.22 0 .42-.183.478-.253.049-.074.055-.09.083-.158.05-.106.139-.236-.083-.525-.183-.224-.625-.667-.64-.98-.015-.52.235-.82.457-1.03h-.18c-.328 0-.36-.2-.69-.2-.252 0-.39.245-.39.457 0 .218.034.262.11.401.104.19.142.299.107.491-.19-.177-.468-.274-.684-.072-.077.25-.132.343-.292.464-.009-.213-.436-.535-.805-.186-.038.092-.072.28-.336.28-.158 0-.139-.035-.207-.055-.103.09-.198.194-.228.332a.535.535 0 0 1 .087-.465c-.022-.092-.015-.31.103-.376-.044-.038-.031-.014-.055-.065-.169.143-.421.157-.535 0-.09.019-.186.082-.284.288-.025-.21.114-.446.214-.511 0-.166.215-.3.43-.248.025-.03 0-.048.025-.077.026-.032-.006-.024-.006-.024-.063-.032-.275-.04-.256-.304-.13-.05-.254.013-.344.086a.467.467 0 0 1 .423-.304c.05-.104.214-.112.294-.112.151 0 .252.074.283.17.156.272.504.37.849.37a.327.327 0 0 0 .323-.34c0-.192-.34-.78-.34-1.048 0-.275.473-.779.797-.779.972 0 1.193.402 1.412.402.309 0 .35-.06.399-.11-.46-.564-.757-.551-1.186-.861-.229-.147-.338-.408-.372-.644-.265.062-.525.429-.653.655-.065-.109-.156-.18-.277-.18-.212 0-.366.284-.47.526-.056-.275-.223-.537-.538-.537-.18 0-.373.082-.427.194a.402.402 0 0 1-.477.218c-.094.068-.18.098-.243.388-.092-.367.003-.437.049-.521-.05-.244.046-.33.097-.387l-.031-.063c-.135.044-.347.03-.41-.092-.156-.009-.204.014-.337.212.026-.228.156-.419.299-.474.055-.133.241-.19.392-.19.014-.041.024-.044.026-.074a.314.314 0 0 1-.151-.321c-.125-.142-.253-.054-.363-.013.194-.198.412-.277.57-.185.33-.106.447.044.472.223.037.22.364.245.707.245.74 0 1.924-.695 1.84-1.253-.18-.042-.2-.032-.332-.032-.396 0-.9.495-1.288.504.194-.225.073-.443.176-.616-.212-.007-.424.132-.837.096.136-.082.227-.378.227-.477 0-.1 0-.307-.438-.307-.042.011-.158.05-.248.05-.113 0-.402-.025-.402-.257-.146-.032-.25.009-.404.12.028-.162.33-.36.422-.373.056-.125.183-.182.242-.173.012-.064.012-.009.015-.085-.147-.021-.342-.077-.338-.331-.113-.094-.173-.118-.409-.056.285-.22.398-.185.493-.144.222-.166.399-.08.458-.009.03-.032.053-.032.066-.062-.053-.157-.028-.32.04-.39-.004-.168-.084-.221-.237-.254.323.008.455.08.558.198.19.03.31.201.31.319.014.307-.323.52.31.854.199.096.472.202.75.283.28.079.624.205.763.205-.107-.164-.059-.341-.237-.51.196-.018.443.05.63.092-.04-.249.023-.252-.142-.405.142.022.339.024.446.039.719.076.727-.286.862-.735a2.058 2.058 0 0 0-1.04.334c.032-.14-.008-.242-.008-.364 0-.215.172-.256.253-.256.035 0 .142-.013.222-.013.16 0 .376-.183.28-.534-.055-.168-.179-.277-.324-.23-.113.023-.133.023-.293.086-.115.044-.157.136-.169.266-.024-.054-.067-.22-.087-.26-.03-.05-.04-.077-.085-.189-.016-.037-.012-.037-.026-.08-.081-.175.037-.325.194-.355.12-.025.327-.073.452-.114.253-.077.328-.174.377-.305.057-.136.095-.19.317-.19.074 0 .334.008.455.008.346 0 .737-.293.61-.594.241.041.34.435.279.594.111 0 .493-.08.576-.152-.004.26-.207.59-.354.668.187.02.517-.012.615-.094-.06.2-.272.623-.409.688.326.114.537.289.681.696-.247-.106-.389.019-.602-.01.441.514.605 1.309.733 1.51-.12-.065-.36-.204-.534-.272.18.437-.088.865-.053 1.093-.135-.086-.312-.181-.375-.296-.073.177-.227.517-.167.953-.111-.112-.309-.212-.39-.276-.165.243-.269.395-.269 1.014 0 .837.387 1.642.56 1.958.262.493.32.906.363 1.07.08.332.32.544.626.544.3 0 .548-.272.548-.607 0-.61-.733-.993-.733-2.06 0-.71.534-1.061.548-1.507.014-.395-.35-.156-.61-.327.343-.068.544-.452.851-.438.271.019.336.163.346.3.022.19-.101.415-.145.489.302-.25.428-.656.428-.857 0-.303-.41-.637-.302-1.206.017-.08.01-.07.036-.119.125.65 1.028.819 1.028 1.453 0 .612-.514.495-.81.915zM25.78 5.027c-.088.322-.086.73.358.73.34 0 .938-.295 1.066-.357l.053.109c-.1.047-.88.672-1.51.682-.35 0-.471-.206-.471-.416 0-.321.244-.432.504-.748zm5.675 4.302c.343-.139.72-.07.72.31 0 .338-.52.537-.622.692-.05.078-.095.128-.118.207-.063-.218.055-.403.055-.56 0-.18-.125-.262-.306-.262-.272 0-1.003.66-.562 1.723-.022-.377.111-.626.173-.694a.452.452 0 0 0 .105-.324c.148.266.175.386.175.587 0 .458-.326.55-.176.89.027.096.063.17.11.291 0-.163.028-.301.057-.419.02-.106.202-.313.216-.405a.61.61 0 0 0 .005-.269c.148.19.25.343.25.633 0 .347-.154.542-.2.64-.04.098-.091.195-.11.36-.088.753-.461 1.107-.946 1.107-.3 0-.534-.047-.729-.172 0 .966-1.088.885-1.088 1.524 0 .174.115.387.232.508.123.112.563.283.727.49-.239.02-.501.105-.632.268.393.192.383.416.433.718-.39-.196-.565-.081-.665.027-.113.126-.057.291-.19.48-.064-.153-.168-.284-.332-.284-.17 0-.508.305-.511.405-.021.262-.14.366-.38.398-.176.19-.133.283-.127.46-.159-.141-.179-.238-.125-.504-.174-.07-.155-.22-.093-.35l-.073-.05c-.095.09-.194.21-.427.093a.483.483 0 0 0-.234.351c-.058-.398.064-.536.132-.599-.034-.089.026-.274.18-.345 0-.044-.01-.055-.02-.082-.13 0-.238-.054-.292-.14-.123-.026-.294.127-.333.227 0-.235.174-.46.31-.506.153-.302.434-.354.598-.183.097.093.325.194.562.194.225 0 .43-.186.489-.266a.568.568 0 0 0 .09-.15c.045-.118.147-.251-.09-.553-.188-.236-.657-.693-.663-1.023-.011-.538.242-.853.475-1.07h-.186c-.342 0-.372-.217-.722-.217-.255 0-.4.256-.4.478 0 .23.035.275.108.42.117.196.146.304.117.51-.193-.186-.483-.281-.715-.08-.086.265-.143.366-.303.49-.021-.21-.455-.561-.841-.193-.041.092-.075.293-.346.293-.161 0-.15-.035-.219-.065-.112.1-.2.207-.239.348a.57.57 0 0 1 .092-.484c-.023-.095-.01-.324.103-.39-.04-.037-.023-.013-.06-.07-.164.151-.437.171-.555-.003-.094.024-.188.09-.289.31-.027-.225.115-.47.22-.536 0-.166.23-.315.456-.26.018-.025-.009-.052.02-.08.029-.036-.01-.021-.01-.021-.065-.033-.284-.044-.272-.319-.127-.054-.255.014-.347.093a.51.51 0 0 1 .436-.33c.052-.1.222-.111.307-.111.163 0 .269.073.294.18.164.287.53.386.889.386.19 0 .331-.139.331-.348 0-.21-.348-.817-.348-1.105 0-.273.489-.814.822-.814 1.012 0 1.247.43 1.477.43.316 0 .36-.069.413-.117-.475-.59-.782-.578-1.239-.893-.229-.163-.347-.427-.378-.68-.282.068-.557.449-.692.688-.058-.116-.153-.19-.278-.19-.225 0-.388.293-.494.547-.058-.283-.23-.558-.56-.558-.183 0-.393.085-.439.204a.443.443 0 0 1-.504.228c-.096.07-.185.096-.254.4-.096-.38 0-.451.055-.546-.055-.248.047-.34.1-.398l-.032-.073c-.149.06-.369.038-.434-.087-.16-.008-.207.016-.35.223.027-.24.165-.44.314-.503.059-.139.251-.197.407-.197.017-.042.032-.042.034-.072a.327.327 0 0 1-.166-.333c-.126-.144-.262-.06-.378-.015.203-.21.436-.286.599-.192.337-.116.459.044.484.237.042.224.382.25.742.25.773 0 2.006-.729 1.922-1.305-.188-.05-.21-.041-.355-.041-.413 0-.934.527-1.337.53.2-.231.074-.468.19-.642-.227-.006-.451.139-.882.098.141-.08.245-.394.245-.493 0-.106 0-.321-.463-.321-.042.011-.17.05-.258.05-.11 0-.416-.025-.416-.273-.156-.027-.267.016-.424.13.026-.157.348-.372.436-.389.065-.127.191-.187.256-.177.011-.072.011-.007.011-.092-.144-.014-.354-.076-.347-.334-.113-.102-.18-.126-.426-.062.307-.232.418-.197.512-.159.226-.171.407-.076.476 0 .03-.038.052-.044.065-.068-.047-.165-.023-.331.053-.403-.008-.182-.088-.234-.258-.272.35.008.479.088.587.21.202.025.324.203.33.326.007.332-.341.543.321.887.197.114.488.215.783.304.289.08.648.217.785.217-.109-.18-.06-.357-.242-.537.208-.014.462.065.657.1-.045-.265.021-.265-.149-.428.144.028.35.028.467.042.748.08.758-.296.9-.773-.253.026-.684.08-1.094.357.038-.144 0-.25 0-.372 0-.23.175-.27.26-.27.036 0 .15-.022.233-.022.168 0 .392-.19.288-.555-.048-.171-.184-.28-.336-.24-.11.033-.14.03-.299.09-.13.055-.169.15-.176.277-.025-.056-.074-.218-.094-.269-.022-.05-.045-.082-.087-.195-.015-.036-.015-.036-.03-.082-.084-.183.043-.34.203-.37.13-.032.343-.082.47-.117.262-.082.343-.186.395-.322.058-.144.094-.206.336-.206.074 0 .341.008.467.008.364 0 .766-.289.634-.61.251.046.355.454.29.61.118 0 .514-.07.604-.147 0 .274-.215.617-.362.69.191.026.528-.002.63-.088-.058.203-.282.645-.422.707.337.122.557.308.713.727-.261-.106-.41.021-.635-.014.46.546.635 1.369.764 1.578-.119-.065-.372-.215-.56-.28.19.455-.09.898-.046 1.137-.144-.09-.332-.187-.393-.31-.075.185-.232.544-.175 1-.118-.124-.318-.224-.408-.295-.177.248-.274.41-.274 1.055 0 .872.403 1.716.578 2.044.276.509.34.948.385 1.12.085.342.32.565.645.565.314 0 .574-.288.574-.637 0-.634-.77-1.042-.77-2.152 0-.735.567-1.097.58-1.563.01-.414-.363-.157-.641-.344.354-.07.571-.474.89-.453.278.017.343.164.358.318.021.194-.106.425-.149.504.312-.264.448-.68.448-.897 0-.306-.433-.656-.318-1.258.018-.076.014-.068.032-.123.13.678 1.079.855 1.079 1.52 0 .632-.538.516-.846.951z" fill="#572258" mask="url(#b)"/></g><path d="M191.07 92.88c1.32 0 2.793 0 4.39-.117v.963s-.238-.042-.676-.042c-2.96 0-2.96 1.775-2.96 4.388v11.747c0 1.22-.03 2.385-.234 3.357-1.153 5.71-5.48 7.219-10.007 7.219-5.963 0-9.616-3.046-10.621-7.332-.164-.693-.29-2.054-.29-3.701V97.387c0-2.77-.516-3.579-3.83-3.66v-.92c1.881.12 3.83.16 5.906.16 2.078 0 4.032-.04 5.91-.16v.92h-.596c-2.797 0-3.236 1.367-3.236 3.66v12.63c0 1.477.075 2.747.388 3.823.937 3.24 3.367 5.15 7.122 5.15 4.552 0 7.34-1.813 8.166-5.95.184-.91.211-1.923.211-3.058v-11.91c0-3.382-.206-4.346-3.59-4.346v-.963a60.3 60.3 0 0 0 3.946.117M207.75 101.078c3.407 0 5.662 1.727 5.662 5.034V115.61c0 1.533.768 1.954 2.772 2.003v.807c-1.733-.12-3.193-.194-4.428-.194-1.152 0-2.659.038-4.47.194v-.807c1.97-.049 2.774-.506 2.774-1.927v-9.345c0-2.73-1.195-4.07-3.616-4.07-2.623 0-4.86 2.303-4.86 5.537v7.802c0 1.533.774 1.954 2.774 2.003v.807c-1.739-.12-3.19-.194-4.428-.194-1.152 0-2.657.038-4.47.194v-.807c1.962-.049 2.737-.506 2.737-1.927 0-.04.04-.267.04-.612v-9.23c0-2.233-.34-2.962-2.427-2.962h-.35v-.771c1.507 0 3.233-.532 5.394-1.454.282.676.502 1.663.533 3.984.351-.63 2.06-3.564 6.364-3.564M225.29 115.92v.56c0 1.518.769 2 2.736 2.086v.842a56.008 56.008 0 0 0-4.495-.203c-1.457 0-2.896.078-4.386.203v-.842c1.89-.086 2.653-.568 2.653-2.007V106.9v-.999c0-1.973-.112-2.688-2.215-2.688h-.316v-.805c1.767-.153 3.735-.677 6.022-1.515v15.027zm-.084-23.047c0 1.125-.92 2.048-2.083 2.048a2.032 2.032 0 0 1-2.053-2.048c0-1.159.884-2.084 2.053-2.084 1.127 0 2.083.925 2.083 2.084zM232.49 101.807c1.32 0 3.056-.044 4.33-.162v.87c-1.463 0-2.11.19-2.11 1.1 0 .47.239 1.497.915 3.03l3.72 8.47 1.76-4.487c1.365-3.545 2.273-5.752 2.273-6.782 0-.901-.676-1.33-2.074-1.33v-.871c.963.084 2.213.162 3.128.162.842 0 2.334-.078 3.331-.162v.87h-.238c-2.096 0-2.662 1.374-3.818 4.21l-5.159 12.683h-.888l-6.473-15.085c-.52-1.18-1.129-1.807-3.16-1.807v-.871c1.517.118 3.178.162 4.463.162M251.745 108.79a20.721 20.721 0 0 0-.12 2.003c0 4.825 2.69 8.032 6.433 8.032 2.136 0 3.544-.76 5.195-2.65l.727.763c-1.654 2.326-3.99 3.457-7.048 3.457-5.555 0-9.169-3.97-9.169-9.035 0-5.098 3.777-9.715 9.293-9.715 4.386 0 7.483 2.812 7.483 6.785v.36h-12.794zm9.176-2.083c0-2.692-1.696-4.216-3.945-4.216-2.574 0-4.588 1.924-4.994 5.138h8.815c.08-.527.124-.842.124-.922zM278.183 101.154c1.97 0 3.133.855 3.133 2.06 0 .962-.577 1.546-1.351 1.546-1.748 0-.855-2.24-3.02-2.24-2.134 0-3.911 2.066-3.911 5.222v7.852c0 1.542.774 1.966 2.784 2.014v.813c-1.747-.12-3.253-.195-4.492-.195-1.16 0-2.618.038-4.43.195v-.813c1.964-.048 2.775-.508 2.775-1.938v-9.522c0-2.55-.62-3.4-2.735-3.4h-.423v-.778c1.773-.225 3.613-.69 5.594-1.312.481 1.29.65 3.648.609 4.243.782-1.958 2.712-3.747 5.467-3.747M295.015 103.995l.042 2.597h-.797c-.438-2.328-2.042-4.057-4.902-4.057-1.778 0-3.023 1.13-3.023 2.453 0 1.976 1.42 2.35 3.951 3.604 1.235.628 2.325 1.092 3.218 1.647 1.641 1.01 2.614 2.296 2.614 4.32 0 3.46-2.525 5.836-6.698 5.836-1.825 0-3.562-.606-4.887-1.646l-.545 1.125h-.699c.047-1.487.047-2.37.047-2.687 0-.643-.047-1.57-.047-2.816h.712c.619 3.173 2.583 5.054 5.466 5.054 2.505 0 3.853-1.575 3.853-3.258 0-2.099-1.435-2.711-4.27-4.03-3.382-1.629-5.42-2.648-5.42-5.632 0-2.741 2.659-4.86 5.595-4.86 2.157 0 3.038.362 4.412 1.092l.844-1.007h.585l-.051 2.265M306.188 115.92v.56c0 1.518.77 2 2.76 2.086v.842c-1.54-.125-3.001-.203-4.46-.203a53.14 53.14 0 0 0-4.422.203v-.842c1.914-.086 2.68-.568 2.68-2.007V106.9v-.999c0-1.973-.12-2.688-2.222-2.688h-.333v-.805c1.789-.153 3.682-.677 5.997-1.515v15.027zm0-23.047c0 1.125-.933 2.048-2.106 2.048a2.045 2.045 0 0 1-2.072-2.048c0-1.159.897-2.084 2.072-2.084 1.13 0 2.106.925 2.106 2.084zM315.93 97.697v4.26h4.271v1.167h-4.236v11.634c0 2.324.644 3.493 2.407 3.493 1.032 0 2.025-.58 2.792-1.777l.612.568c-.92 1.666-2.5 2.366-4.43 2.366-3.122 0-4.628-1.623-4.628-4.837v-11.447h-1.797v-.626c1.682-1.008 3.174-2.636 4.356-4.8h.652M326.39 101.808c.573 0 2.09-.044 4.44-.163v.876c-1.547.03-2.236.279-2.236 1.301 0 .246.111.64.273 1.074l3.854 10.227 3.66-9.116a5.372 5.372 0 0 0 .383-1.979c0-1.075-.57-1.477-2.004-1.507v-.876c1.164.085 2.09.163 2.703.163.77 0 2.055-.078 3.063-.163v.876h-.116c-1.702 0-1.944.865-2.711 2.813l-4.978 12.323c-3.549 8.837-5.056 12.606-6.83 12.606-.618 0-1.204-.432-1.204-1.153 0-1.296 1.298-1.598 2.247-2.178.958-.592 1.782-2.36 3.434-6.18l.717-1.688-5.542-13.646c-.697-1.715-.816-2.897-2.78-2.897v-.876c1.47.12 2.62.163 3.627.163M164.868 81.477c5.05-.121 5.842-1.353 5.842-5.59v-27.3c0-4.254-.792-5.483-5.842-5.603v-1.416c2.31.062 4.386.13 6.27.13 4.683 0 7.402-.25 11.502-.25 8.578 0 14.578 2.247 18.306 6.593 2.81 3.28 4.383 7.659 4.383 13.562 0 6.635-2.032 11.851-5.558 15.47-3.696 3.787-9.058 5.822-16.651 5.822-3.709 0-7.602-.183-11.553-.183-2.192 0-4.389 0-6.699.125v-1.36zm12.109-8.543c0 5.656 1.277 8.422 7.304 8.422 9.794 0 13.75-7.504 13.75-19.681 0-14.204-5.322-18.876-16.245-18.876-3.65 0-4.81 0-4.81 3.38v26.755zM213.277 55.394c1.286 0 2.92-.067 4.749-.13V74.71c0 4.153 1.95 6.291 5.717 6.291 4.138 0 7.672-3.663 7.672-8.8V60.587v-1.098c0-1.895-1.28-2.873-3.9-2.873h-.484v-1.352c1.885.064 3.597.131 5.05.131 1.274 0 2.862-.067 4.688-.13V75.506c0 3.3.471 5.47 3.515 5.47.244 0 .331.017.571.017v1.282c-2.968-.27-5.212-.244-9.113-.06l-.146-4.815c-2.378 3.787-5.605 5.494-9.921 5.494-6.995 0-9.004-3.356-9.004-9.535V60.586c0-.612-.06-.97-.06-1.098 0-1.895-1.277-2.873-3.833-2.873h-.489v-1.352c1.886.064 3.525.131 4.988.131M262.553 55.709c3.162 0 4.947 1.71 4.947 3.383 0 1.519-.958 2.287-2.013 2.287-3.155 0-1.61-3.539-4.917-3.539-3.127 0-6.25 2.924-6.25 8.23v12.375c0 2.438 1.25 3.102 4.462 3.163v1.287c-2.788-.189-5.196-.305-7.173-.305-1.864 0-4.275.06-7.177.305v-1.287c3.153-.06 4.448-.793 4.448-3.046V63.57c0-4.021-.984-5.363-4.39-5.363h-.674V56.99c2.841-.366 5.765-.747 8.918-1.728.804 1.78 1.04 5.234 1.04 6.368 1.11-2.54 4.075-5.922 8.779-5.922" fill="#1A1919"/><path d="M276.427 60.566c1.876-3.516 5.71-5.445 9.988-5.445 5.83 0 9.184 2.988 9.184 8.07V78.399c0 2.463 1.235 3.134 4.467 3.195v1.3c-2.796-.19-5.209-.307-7.195-.307-1.87 0-4.285.06-7.198.308v-1.3c3.165-.062 4.469-.801 4.469-3.078V63.554c0-4.368-1.925-6.524-5.835-6.524-4.219 0-7.88 3.692-7.88 8.866V78.4c0 2.463 1.243 3.134 4.47 3.195v1.3c-2.794-.19-5.214-.307-7.202-.307a84.41 84.41 0 0 0-7.182.308v-1.3c3.154-.062 4.46-.801 4.46-3.078V45.13c0-2.707-1.242-3.69-4.46-3.762v-1.097c1.914-.126 5.199-.681 9.914-1.784v22.079M318.162 79.882c-1.352 1.45-3.553 4-9.313 4-4.695 0-7.796-2.483-7.796-6.245 0-4.103 3.357-6.626 10.21-9.298l3.293-1.244c2.86-1.12 3.797-1.057 3.797-3.231v-1.35c0-3.924-1.49-6.013-6.159-6.013-4.83 0-4.974 2.089-5.183 3.844-.132 1.103-.416 2.383-2.452 2.383-1.18 0-2.019-.998-2.019-2.3 0-2.677 3.46-5.165 10.275-5.165 7.281 0 10.699 2.302 10.699 7.151v15.804c0 2.42.787 3.437 2.093 3.437.87 0 1.567-.395 2.268-1.325l.81.873c-1.31 2.053-3.055 2.67-5.475 2.67-2.884 0-4.624-1.639-5.048-3.99zm-11.326-3.34c0 2.916 1.552 5.113 4.361 5.113 4.152 0 7.033-2.723 7.033-5.81v-8.87c-7.714 3.046-11.394 5.703-11.394 9.566zM366.689 54.895c6.216 0 8.885 3.37 8.885 8.978v14.5c0 2.477 1.222 3.152 4.426 3.214v1.308c-2.77-.192-5.17-.31-7.143-.31-1.834 0-4.244.061-7.127.31v-1.308c3.139-.062 4.362-.805 4.362-3.096 0-.058.061-.432.061-.986V62.948c0-3.96-1.845-6.07-5.348-6.07-4.318 0-7.26 3.113-7.26 8.69v12.805c0 2.409 1.227 3.152 4.31 3.214v1.308c-2.654-.192-4.989-.31-7.008-.31-2.221 0-4.435.118-6.839.31v-1.308c2.892-.122 4.119-.863 4.119-3.096V62.948c0-3.901-1.84-6.07-5.351-6.07-4.252 0-7.257 3.404-7.257 8.984V78.373c0 2.477 1.23 3.152 4.432 3.214v1.308c-2.771-.192-5.17-.31-7.14-.31-1.843 0-3.987.061-6.876.31v-1.308c3.127-.062 4.168-.805 4.168-3.096V62.635c0-3.588-.553-4.766-3.869-4.766h-.563v-1.232c2.404 0 5.233-.87 8.678-2.36.496 1.85.723 3.857.723 5.708 0 .277.029.518 0 .562 1.648-3.398 5.493-5.715 9.736-5.715 6.15 0 8.158 4.008 8.189 5.837.898-2.392 4.121-5.774 9.692-5.774" fill="#1A1919"/><path d="M7.953 167.754v-7.664h.879c.996 4.992 3.357 7.488 7.084 7.488 1.676 0 2.974-.477 3.894-1.432.92-.956 1.38-2.025 1.38-3.208 0-1.196-.405-2.198-1.213-3.006-.809-.797-2.286-1.653-4.43-2.567-1.91-.82-3.352-1.538-4.324-2.153a6.566 6.566 0 0 1-2.277-2.4 6.398 6.398 0 0 1-.817-3.146c0-1.7.589-3.114 1.767-4.245 1.177-1.131 2.668-1.696 4.473-1.696 1.008 0 1.957.164 2.848.492.89.328 1.804 1.008 2.742 2.039.539-.645.844-1.342.914-2.092h.773v6.24h-.773c-.445-1.816-1.233-3.246-2.364-4.289-1.131-1.043-2.44-1.564-3.929-1.564-1.418 0-2.458.384-3.12 1.151-.662.768-.993 1.609-.993 2.523 0 1.101.416 2.033 1.248 2.795.82.773 2.303 1.64 4.447 2.601 2.05.914 3.542 1.65 4.474 2.206a6.245 6.245 0 0 1 2.241 2.312c.562.984.844 2.12.844 3.41 0 2.039-.68 3.697-2.04 4.974-1.359 1.278-3.175 1.916-5.449 1.916-2.613 0-4.793-1.001-6.539-3.005-.386.55-.673 1.324-.861 2.32h-.879zm27.299-13.342H30.91v8.701c0 1.336.059 2.236.176 2.699.117.462.366.834.747 1.116.38.281.788.422 1.222.422.843 0 1.576-.48 2.197-1.442l.562.334c-.363.774-.899 1.357-1.608 1.75-.709.392-1.427.588-2.153.588-.844 0-1.585-.249-2.224-.747-.639-.498-1.037-1.081-1.195-1.749-.158-.668-.238-1.84-.238-3.516v-8.156h-2.091v-.808c.96-.024 1.822-.428 2.584-1.213.761-.786 1.248-1.887 1.459-3.305h.562v4.518h4.342v.808zm16.47 10.951h.651c-.105 2.004-1.09 3.006-2.953 3.006-.797 0-1.427-.21-1.89-.633-.463-.422-.764-1.048-.905-1.88-1.172.832-2.241 1.458-3.208 1.88-.967.422-1.831.633-2.593.633-.972 0-1.81-.281-2.513-.844-.704-.562-1.055-1.306-1.055-2.232 0-1.207.589-2.262 1.766-3.164 1.178-.902 2.804-1.781 4.878-2.637l2.725-1.107v-.703c0-.996-.064-1.717-.193-2.162-.13-.446-.463-.844-1.002-1.196-.54-.351-1.248-.527-2.127-.527-1.758 0-2.737.586-2.936 1.758-.187 1.195-.68 1.793-1.476 1.793-.715 0-1.073-.34-1.073-1.02 0-.668.475-1.386 1.424-2.153.95-.768 2.426-1.152 4.43-1.152 1.488 0 2.642.235 3.463.704.82.468 1.362 1.002 1.626 1.6.263.597.395 1.51.395 2.741v5.819c0 1.36.07 2.232.211 2.619.14.387.445.58.914.58.774 0 1.254-.574 1.442-1.723zm-5.097-6.152l-1.916.773c-3.023 1.23-4.535 2.778-4.535 4.641 0 .738.193 1.333.58 1.784.387.451.89.677 1.512.677.55 0 1.19-.182 1.916-.545.726-.363 1.54-.908 2.443-1.635v-5.695zm14.871-5.607v.808H58.49v8.649c0 1.535.02 2.501.062 2.9.04.398.208.703.5.914.294.21.815.316 1.565.316h.756V168h-7.787v-.809c.809 0 1.368-.082 1.679-.246.31-.164.504-.413.58-.747.076-.334.114-1.38.114-3.137v-8.649h-2.69v-.808h2.69v-1.301c0-1.453.059-2.578.176-3.375.117-.797.448-1.62.993-2.47.545-.85 1.23-1.503 2.057-1.96.826-.457 1.807-.685 2.944-.685 1.383 0 2.49.287 3.322.86.832.575 1.248 1.161 1.248 1.759 0 .34-.117.62-.351.843a1.16 1.16 0 0 1-.827.334c-.62 0-1.189-.48-1.705-1.441-.574-1.055-1.318-1.582-2.232-1.582-.738 0-1.386.267-1.942.8-.557.533-.888 1.198-.994 1.995-.105.797-.158 2.508-.158 5.133v1.09h3.006zm10.108 0v.808h-3.006v8.649c0 1.535.02 2.501.061 2.9.041.398.208.703.501.914.293.21.815.316 1.565.316h.755V168h-7.787v-.809c.809 0 1.369-.082 1.68-.246.31-.164.503-.413.58-.747.075-.334.113-1.38.113-3.137v-8.649h-2.689v-.808h2.69v-1.301c0-1.453.058-2.578.175-3.375.117-.797.448-1.62.993-2.47.545-.85 1.23-1.503 2.057-1.96.826-.457 1.808-.685 2.944-.685 1.383 0 2.49.287 3.323.86.832.575 1.248 1.161 1.248 1.759 0 .34-.118.62-.352.843a1.16 1.16 0 0 1-.826.334c-.621 0-1.19-.48-1.705-1.441-.574-1.055-1.319-1.582-2.233-1.582-.738 0-1.385.267-1.942.8-.557.533-.888 1.198-.993 1.995-.106.797-.158 2.508-.158 5.133v1.09h3.006zm29.214 14.958h-1.09l-8.226-18.949c-.152-.34-.393-.925-.72-1.758-.458-1.125-.938-1.88-1.442-2.267s-1.319-.592-2.444-.615v-.809h10.266v.809c-1.277 0-2.136.093-2.575.28-.44.188-.66.546-.66 1.073 0 .34.276 1.137.827 2.39l6.855 15.821 5.502-13.166c.926-2.203 1.389-3.639 1.389-4.307 0-1.347-.955-2.044-2.865-2.091v-.809h7.277v.809a2.986 2.986 0 0 0-1.951.79c-.563.505-1.049 1.243-1.459 2.216l-1.6 3.744-7.084 16.84zm9.264-7.787c0-2.203.738-4.046 2.215-5.528 1.476-1.482 3.293-2.224 5.45-2.224 2.167 0 3.99.745 5.466 2.233s2.215 3.328 2.215 5.52c0 2.425-.75 4.332-2.25 5.721-1.5 1.389-3.31 2.083-5.432 2.083-2.121 0-3.929-.706-5.423-2.118-1.494-1.412-2.241-3.308-2.241-5.687zm2.918.088c0 2.555.416 4.345 1.248 5.37.832 1.026 1.998 1.538 3.498 1.538 1.535 0 2.71-.512 3.525-1.538.814-1.025 1.221-2.815 1.221-5.37 0-2.531-.404-4.336-1.213-5.414-.808-1.078-1.986-1.617-3.533-1.617-1.535 0-2.71.536-3.524 1.608-.815 1.073-1.222 2.88-1.222 5.423zm19.266-17.033v19.23c0 1.536.02 2.502.061 2.9.041.4.208.704.501.915.293.21.815.316 1.565.316h.421V168h-7.699v-.809h.492c.704 0 1.205-.096 1.503-.29.3-.193.478-.465.536-.817.06-.352.088-1.36.088-3.023v-14.239c0-1.511-.134-2.464-.404-2.856-.27-.393-.926-.589-1.969-.589v-.809c.715 0 1.556-.082 2.523-.246.967-.164 1.632-.328 1.995-.492h.387zm18.755 9.774v9.439c0 1.57.024 2.555.07 2.953.048.399.22.697.52.897.298.199.834.298 1.608.298V168c-1.782.023-3.082.21-3.903.563h-.21c-.376-.645-.575-1.758-.598-3.34-.715 1.113-1.532 1.95-2.452 2.513a5.733 5.733 0 0 1-3.05.844c-.961 0-1.81-.22-2.549-.66-.738-.439-1.245-.975-1.52-1.607-.276-.633-.414-1.588-.414-2.866v-4.904c0-1.664-.029-2.68-.087-3.05a1.084 1.084 0 0 0-.554-.817c-.31-.176-.882-.264-1.714-.264v-.808h4.887v9.984c0 .984.058 1.7.175 2.144.118.446.416.835.897 1.17.48.333 1.037.5 1.67.5.902 0 1.764-.296 2.584-.887.82-.592 1.38-1.22 1.679-1.881.298-.662.448-1.609.448-2.84v-3.251c0-1.57-.018-2.525-.053-2.865a1.398 1.398 0 0 0-.448-.888c-.264-.252-.812-.378-1.644-.378h-.369v-.808h5.027zm8.069-.58h.474c.27.726.422 1.716.457 2.97.844-.996 1.729-1.74 2.655-2.232a6.098 6.098 0 0 1 2.9-.739c1.149 0 2.089.24 2.821.721.733.48 1.205 1.07 1.416 1.767.21.697.316 1.714.316 3.05v4.5c0 1.664.03 2.677.088 3.04.058.364.243.636.554.818.31.182.881.272 1.713.272V168h-7.365v-.809h.334c.844 0 1.395-.123 1.652-.369.258-.246.405-.533.44-.861.035-.328.053-1.295.053-2.9v-4.641c0-1.137-.056-1.948-.167-2.435-.112-.486-.41-.917-.897-1.292-.486-.375-1.104-.562-1.854-.562-.856 0-1.673.255-2.452.765-.78.51-1.515 1.274-2.207 2.293v5.872c0 1.664.033 2.677.097 3.04.065.364.252.636.563.818.31.182.887.272 1.731.272V168h-7.277v-.809c.808 0 1.37-.082 1.687-.246.317-.164.513-.413.59-.747.075-.334.113-1.38.113-3.137v-4.29c0-1.675-.032-2.692-.096-3.05a1.126 1.126 0 0 0-.563-.808c-.31-.182-.887-.272-1.731-.272v-.809a22.59 22.59 0 0 0 3.955-.809zm24.047 1.388h-4.342v8.701c0 1.336.059 2.236.176 2.699.117.462.366.834.747 1.116.38.281.788.422 1.221.422.844 0 1.577-.48 2.198-1.442l.562.334c-.363.774-.9 1.357-1.608 1.75-.71.392-1.427.588-2.154.588-.843 0-1.584-.249-2.223-.747-.639-.498-1.037-1.081-1.195-1.749-.159-.668-.238-1.84-.238-3.516v-8.156h-2.092v-.808c.961-.024 1.823-.428 2.584-1.213.762-.786 1.248-1.887 1.46-3.305h.562v4.518h4.342v.808zm14.994 4.06h-10.037c-.047.692-.07 1.208-.07 1.548 0 2.53.395 4.432 1.186 5.704.791 1.271 1.972 1.907 3.542 1.907 2.133 0 3.644-.955 4.535-2.865h.844c-.375 1.195-1.12 2.13-2.233 2.803a6.898 6.898 0 0 1-3.638 1.011 6.89 6.89 0 0 1-3.454-.923c-1.084-.615-1.972-1.485-2.663-2.61-.692-1.125-1.038-2.49-1.038-4.096 0-2.273.668-4.163 2.004-5.669 1.336-1.506 3.006-2.259 5.01-2.259 1.887 0 3.346.575 4.377 1.723 1.031 1.149 1.576 2.39 1.635 3.727zm-3.076-.702c.035-.27.052-.51.052-.721 0-1.031-.301-1.831-.905-2.4-.603-.568-1.345-.852-2.223-.852-2.133 0-3.405 1.324-3.815 3.973h6.89zm18.826.703h-10.037c-.047.691-.07 1.207-.07 1.547 0 2.53.395 4.432 1.186 5.704.791 1.271 1.972 1.907 3.542 1.907 2.133 0 3.644-.955 4.535-2.865h.844c-.375 1.195-1.12 2.13-2.233 2.803a6.898 6.898 0 0 1-3.638 1.011 6.89 6.89 0 0 1-3.454-.923c-1.084-.615-1.972-1.485-2.663-2.61-.692-1.125-1.038-2.49-1.038-4.096 0-2.273.668-4.163 2.004-5.669 1.336-1.506 3.006-2.259 5.01-2.259 1.887 0 3.346.575 4.377 1.723 1.031 1.149 1.576 2.39 1.635 3.727zm-3.076-.703c.035-.27.052-.51.052-.721 0-1.031-.301-1.831-.905-2.4-.603-.568-1.345-.852-2.223-.852-2.133 0-3.405 1.324-3.815 3.973h6.89zm10.441-1.073a5.996 5.996 0 0 1 1.942-2.619c.897-.703 1.773-1.055 2.628-1.055.774 0 1.383.24 1.829.721.445.48.667.973.667 1.477 0 .34-.114.633-.342.879-.229.246-.507.369-.835.369-.586 0-1.031-.434-1.336-1.301-.211-.586-.528-.879-.95-.879-.503 0-1.107.343-1.81 1.028-.703.686-1.154 1.398-1.353 2.136-.2.738-.3 1.752-.3 3.041v2.567c0 1.535.021 2.501.062 2.9.041.398.208.703.501.914.293.21.815.316 1.565.316h.492V168h-7.647v-.809h.37c.703 0 1.204-.096 1.502-.29.3-.193.478-.465.537-.817.058-.352.087-1.36.087-3.023V159c0-1.547-.02-2.517-.061-2.91-.041-.392-.208-.696-.501-.913-.293-.217-.814-.325-1.564-.325h-.37v-.791c1.102-.13 2.543-.475 4.325-1.038.34.926.527 2.15.562 3.674zm9.545-11.021c0-.504.179-.938.536-1.301a1.747 1.747 0 0 1 1.292-.545c.504 0 .932.182 1.283.545.352.363.528.797.528 1.3 0 .516-.176.956-.528 1.32-.351.362-.779.544-1.283.544-.504 0-.934-.182-1.292-.545a1.81 1.81 0 0 1-.536-1.318zm3.393 7.347v10.038c0 1.535.023 2.501.07 2.9.047.398.217.703.51.914.293.21.814.316 1.564.316h.37V168h-7.753v-.809h.598c.832 0 1.374-.12 1.626-.36.252-.24.398-.527.44-.861.04-.334.06-1.304.06-2.91v-4.359c0-1.687-.078-2.719-.236-3.094-.159-.375-.37-.609-.633-.703-.264-.093-.724-.14-1.38-.14h-.475v-.809c2.086-.21 3.703-.521 4.852-.932h.387zm8.156 0h.474c.27.727.422 1.717.457 2.971.844-.996 1.729-1.74 2.655-2.232a6.098 6.098 0 0 1 2.9-.739c1.149 0 2.089.24 2.821.721.733.48 1.205 1.07 1.416 1.767.21.697.316 1.714.316 3.05v4.5c0 1.664.03 2.677.088 3.04.058.364.243.636.554.818.31.182.881.272 1.713.272V168h-7.365v-.809h.334c.844 0 1.395-.123 1.652-.369.258-.246.405-.533.44-.861.035-.328.053-1.295.053-2.9v-4.641c0-1.137-.056-1.948-.167-2.435-.112-.486-.41-.917-.897-1.292-.486-.375-1.104-.562-1.854-.562-.856 0-1.673.255-2.452.765-.78.51-1.515 1.274-2.207 2.293v5.872c0 1.664.033 2.677.097 3.04.065.364.252.636.563.818.31.182.887.272 1.731.272V168h-7.277v-.809c.808 0 1.37-.082 1.687-.246.317-.164.513-.413.59-.747.075-.334.113-1.38.113-3.137v-4.29c0-1.675-.032-2.692-.096-3.05a1.126 1.126 0 0 0-.563-.808c-.31-.182-.887-.272-1.731-.272v-.809a22.59 22.59 0 0 0 3.955-.809zm26.508 1.846c.996-1.125 2.004-1.687 3.023-1.687.563 0 1 .152 1.31.457.31.304.465.638.465 1.002 0 .773-.351 1.16-1.054 1.16-.387 0-.72-.24-1.002-.72-.258-.446-.527-.669-.809-.669-.445 0-.937.305-1.476.914.61.961.914 1.98.914 3.059 0 1.406-.504 2.648-1.512 3.726-1.008 1.09-2.707 1.676-5.098 1.758-2.484.082-3.726.586-3.726 1.512 0 .433.281.738.844.914.55.187 1.71.328 3.48.422 1.934.094 3.422.272 4.465.536 1.043.264 1.875.794 2.496 1.59.621.798.932 1.747.932 2.848 0 1.547-.633 2.795-1.899 3.745-1.265.949-3.088 1.423-5.467 1.423-2.18 0-3.925-.421-5.238-1.265-1.312-.844-1.969-1.91-1.969-3.2 0-.714.188-1.3.563-1.757.375-.457.908-.686 1.6-.686.187 0 .357.03.51.088-.727.797-1.09 1.64-1.09 2.531 0 1.032.483 1.884 1.45 2.558.966.674 2.41 1.01 4.333 1.01 1.71 0 3.044-.342 3.999-1.028.955-.685 1.432-1.561 1.432-2.628 0-1.171-.428-1.998-1.283-2.478-.855-.469-2.379-.75-4.57-.844-2.52-.105-4.155-.416-4.905-.931-.75-.504-1.125-1.155-1.125-1.952 0-1.535 1.073-2.502 3.217-2.9-1.113-.656-1.951-1.406-2.513-2.25a4.99 4.99 0 0 1-.844-2.83c0-1.465.577-2.71 1.731-3.735 1.155-1.026 2.523-1.539 4.105-1.539 1.957 0 3.527.616 4.71 1.846zm-7.91 3.832c0 1.512.31 2.62.931 3.322.621.704 1.412 1.055 2.373 1.055.89 0 1.655-.349 2.294-1.046.639-.697.958-1.907.958-3.63 0-1.734-.34-2.93-1.02-3.586-.68-.656-1.447-.984-2.302-.984-1.078 0-1.887.404-2.426 1.213-.539.809-.808 2.027-.808 3.656zm29.724-1.916v5.01c0 1.875.044 3.102.132 3.683.088.58.325 1.01.712 1.292.387.28 1.113.421 2.18.421h.79V168h-10.915v-.809h.632c1.02 0 1.726-.128 2.119-.386.392-.258.641-.66.747-1.204.105-.545.158-1.814.158-3.806v-11.69c0-1.898-.053-3.123-.158-3.673-.106-.551-.34-.932-.704-1.143-.363-.21-1.148-.316-2.355-.316h-.44v-.809l2.989-.105a173.67 173.67 0 0 1 5.59-.123c2.46 0 4.356.193 5.686.58 1.33.386 2.42 1.072 3.27 2.056.85.985 1.274 2.227 1.274 3.727 0 1.3-.29 2.449-.87 3.445-.58.996-1.412 1.752-2.496 2.268-1.084.515-2.991.773-5.722.773h-2.619zm0-.879h1.705c1.371 0 2.479-.137 3.322-.413.844-.275 1.547-.852 2.11-1.731.562-.88.844-1.963.844-3.252 0-1.969-.484-3.413-1.45-4.333-.967-.92-2.535-1.38-4.703-1.38-.797 0-1.406.023-1.828.07v11.04zm17.965.791a5.996 5.996 0 0 1 1.942-2.619c.897-.703 1.773-1.055 2.628-1.055.774 0 1.383.24 1.828.721.446.48.668.973.668 1.477 0 .34-.114.633-.342.879-.229.246-.507.369-.835.369-.586 0-1.032-.434-1.336-1.301-.211-.586-.528-.879-.95-.879-.503 0-1.107.343-1.81 1.028-.703.686-1.154 1.398-1.354 2.136-.199.738-.298 1.752-.298 3.041v2.567c0 1.535.02 2.501.061 2.9.041.398.208.703.501.914.293.21.815.316 1.565.316h.492V168h-7.647v-.809h.37c.703 0 1.203-.096 1.502-.29.3-.193.478-.465.536-.817.059-.352.088-1.36.088-3.023V159c0-1.547-.02-2.517-.061-2.91-.041-.392-.208-.696-.501-.913-.293-.217-.815-.325-1.565-.325h-.369v-.791c1.102-.13 2.543-.475 4.324-1.038.34.926.528 2.15.563 3.674zm7.787 4.078c0-2.203.738-4.046 2.215-5.528 1.476-1.482 3.293-2.224 5.45-2.224 2.167 0 3.99.745 5.466 2.233s2.215 3.328 2.215 5.52c0 2.425-.75 4.332-2.25 5.721-1.5 1.389-3.31 2.083-5.432 2.083-2.121 0-3.929-.706-5.423-2.118-1.494-1.412-2.24-3.308-2.24-5.687zm2.918.088c0 2.555.416 4.345 1.248 5.37.832 1.026 1.998 1.538 3.498 1.538 1.535 0 2.71-.512 3.525-1.538.814-1.025 1.221-2.815 1.221-5.37 0-2.531-.404-4.336-1.213-5.414-.808-1.078-1.986-1.617-3.533-1.617-1.535 0-2.71.536-3.524 1.608-.815 1.073-1.222 2.88-1.222 5.423zm26.086-5.994c.996-1.125 2.004-1.687 3.023-1.687.563 0 1 .152 1.31.457.31.304.466.638.466 1.002 0 .773-.352 1.16-1.055 1.16-.387 0-.72-.24-1.002-.72-.258-.446-.527-.669-.808-.669-.446 0-.938.305-1.477.914.61.961.914 1.98.914 3.059 0 1.406-.504 2.648-1.512 3.726-1.007 1.09-2.707 1.676-5.097 1.758-2.485.082-3.727.586-3.727 1.512 0 .433.281.738.844.914.55.187 1.71.328 3.48.422 1.934.094 3.422.272 4.465.536 1.043.264 1.875.794 2.496 1.59.621.798.932 1.747.932 2.848 0 1.547-.633 2.795-1.899 3.745-1.265.949-3.087 1.423-5.466 1.423-2.18 0-3.926-.421-5.239-1.265-1.312-.844-1.968-1.91-1.968-3.2 0-.714.187-1.3.562-1.757.375-.457.908-.686 1.6-.686.187 0 .357.03.51.088-.727.797-1.09 1.64-1.09 2.531 0 1.032.483 1.884 1.45 2.558.967.674 2.411 1.01 4.333 1.01 1.71 0 3.044-.342 3.999-1.028.955-.685 1.433-1.561 1.433-2.628 0-1.171-.428-1.998-1.284-2.478-.855-.469-2.379-.75-4.57-.844-2.52-.105-4.154-.416-4.904-.931-.75-.504-1.125-1.155-1.125-1.952 0-1.535 1.072-2.502 3.217-2.9-1.114-.656-1.952-1.406-2.514-2.25a4.99 4.99 0 0 1-.844-2.83c0-1.465.577-2.71 1.732-3.735 1.154-1.026 2.522-1.539 4.104-1.539 1.957 0 3.527.616 4.711 1.846zm-7.91 3.832c0 1.512.31 2.62.931 3.322.622.704 1.413 1.055 2.373 1.055.891 0 1.656-.349 2.294-1.046.64-.697.958-1.907.958-3.63 0-1.734-.34-2.93-1.02-3.586-.679-.656-1.446-.984-2.302-.984-1.078 0-1.887.404-2.426 1.213-.539.809-.808 2.027-.808 3.656zm19.09-2.004a5.996 5.996 0 0 1 1.942-2.619c.897-.703 1.772-1.055 2.628-1.055.773 0 1.383.24 1.828.721.445.48.668.973.668 1.477 0 .34-.114.633-.343.879-.228.246-.507.369-.835.369-.586 0-1.03-.434-1.336-1.301-.21-.586-.527-.879-.949-.879-.504 0-1.107.343-1.81 1.028-.704.686-1.155 1.398-1.354 2.136-.2.738-.299 1.752-.299 3.041v2.567c0 1.535.02 2.501.062 2.9.04.398.208.703.5.914.294.21.815.316 1.565.316h.492V168h-7.646v-.809h.37c.702 0 1.203-.096 1.502-.29.299-.193.478-.465.536-.817.059-.352.088-1.36.088-3.023V159c0-1.547-.02-2.517-.061-2.91-.042-.392-.208-.696-.501-.913-.293-.217-.815-.325-1.565-.325h-.37v-.791c1.103-.13 2.544-.475 4.325-1.038.34.926.527 2.15.563 3.674zm22.992 8.666h.65c-.105 2.004-1.09 3.006-2.953 3.006-.797 0-1.427-.21-1.89-.633-.462-.422-.764-1.048-.905-1.88-1.172.832-2.241 1.458-3.208 1.88-.967.422-1.83.633-2.593.633-.972 0-1.81-.281-2.513-.844-.703-.562-1.055-1.306-1.055-2.232 0-1.207.589-2.262 1.767-3.164 1.177-.902 2.803-1.781 4.878-2.637l2.724-1.107v-.703c0-.996-.064-1.717-.193-2.162-.13-.446-.463-.844-1.002-1.196-.54-.351-1.248-.527-2.127-.527-1.758 0-2.736.586-2.936 1.758-.187 1.195-.68 1.793-1.476 1.793-.715 0-1.072-.34-1.072-1.02 0-.668.474-1.386 1.423-2.153.95-.768 2.426-1.152 4.43-1.152 1.488 0 2.643.235 3.463.704.82.468 1.362 1.002 1.626 1.6.264.597.395 1.51.395 2.741v5.819c0 1.36.07 2.232.211 2.619s.446.58.914.58c.774 0 1.254-.574 1.442-1.723zm-5.098-6.152l-1.916.773c-3.023 1.23-4.535 2.778-4.535 4.641 0 .738.193 1.333.58 1.784.387.451.89.677 1.512.677.55 0 1.19-.182 1.916-.545.726-.363 1.54-.908 2.443-1.635v-5.695zm11.162-6.188h.176c.34.786.51 1.793.51 3.024.785-1.008 1.632-1.764 2.54-2.268a5.937 5.937 0 0 1 2.927-.756c1.183 0 2.144.27 2.882.809.739.54 1.254 1.348 1.547 2.426.891-1.078 1.805-1.887 2.743-2.426.937-.539 1.892-.809 2.865-.809 1.113 0 2.056.258 2.83.774.773.516 1.242 1.101 1.406 1.758.164.656.246 1.716.246 3.181v4.325c0 1.675.032 2.695.097 3.058.064.363.252.633.562.809.31.176.888.263 1.732.263V168h-7.19v-.809c.762 0 1.298-.085 1.609-.254.31-.17.5-.428.571-.774.07-.346.106-1.38.106-3.102v-4.8c0-.972-.056-1.704-.167-2.197-.112-.492-.402-.914-.87-1.265-.47-.352-1.079-.528-1.829-.528-.761 0-1.526.258-2.294.774-.767.516-1.538 1.295-2.311 2.338v5.678c0 1.535.02 2.499.061 2.891.041.393.205.697.493.914.287.217.8.325 1.538.325V168h-6.961v-.809c.785 0 1.333-.082 1.643-.246.31-.164.504-.416.58-.756.076-.34.115-1.382.115-3.128v-3.99c0-1.266-.05-2.183-.15-2.752-.1-.568-.401-1.054-.905-1.459-.504-.404-1.131-.606-1.881-.606-.727 0-1.468.234-2.224.703-.755.469-1.526 1.172-2.311 2.11v5.994c0 1.582.023 2.566.07 2.953.047.386.223.68.527.879.305.199.85.298 1.635.298V168h-7.049v-.809c.774 0 1.316-.085 1.626-.254.311-.17.501-.425.572-.765.07-.34.105-1.377.105-3.111v-4.307c0-1.64-.026-2.646-.079-3.015a1.11 1.11 0 0 0-.545-.835c-.31-.187-.87-.281-1.679-.281v-.809c1.665-.164 3.041-.427 4.131-.79zm28.881 0h.176c.34.786.51 1.793.51 3.024.785-1.008 1.632-1.764 2.54-2.268a5.937 5.937 0 0 1 2.926-.756c1.184 0 2.145.27 2.883.809.739.54 1.254 1.348 1.547 2.426.89-1.078 1.805-1.887 2.742-2.426.938-.539 1.893-.809 2.866-.809 1.113 0 2.056.258 2.83.774.773.516 1.242 1.101 1.406 1.758.164.656.246 1.716.246 3.181v4.325c0 1.675.032 2.695.097 3.058.064.363.252.633.562.809.31.176.888.263 1.732.263V168h-7.19v-.809c.762 0 1.298-.085 1.609-.254.31-.17.5-.428.57-.774.071-.346.106-1.38.106-3.102v-4.8c0-.972-.055-1.704-.167-2.197-.111-.492-.401-.914-.87-1.265-.469-.352-1.078-.528-1.828-.528-.762 0-1.526.258-2.294.774-.767.516-1.538 1.295-2.311 2.338v5.678c0 1.535.02 2.499.061 2.891.041.393.205.697.492.914.287.217.8.325 1.538.325V168h-6.96v-.809c.785 0 1.333-.082 1.643-.246.31-.164.504-.416.58-.756.076-.34.114-1.382.114-3.128v-3.99c0-1.266-.05-2.183-.149-2.752-.1-.568-.401-1.054-.905-1.459-.504-.404-1.131-.606-1.881-.606-.727 0-1.468.234-2.224.703-.756.469-1.526 1.172-2.311 2.11v5.994c0 1.582.023 2.566.07 2.953.047.386.223.68.527.879.305.199.85.298 1.635.298V168h-7.049v-.809c.774 0 1.316-.085 1.626-.254.31-.17.501-.425.572-.765.07-.34.105-1.377.105-3.111v-4.307c0-1.64-.026-2.646-.08-3.015a1.11 1.11 0 0 0-.544-.835c-.31-.187-.87-.281-1.679-.281v-.809c1.664-.164 3.041-.427 4.131-.79zm38.215 5.45h-10.037c-.047.691-.07 1.207-.07 1.547 0 2.53.395 4.432 1.186 5.704.791 1.271 1.972 1.907 3.542 1.907 2.133 0 3.645-.955 4.535-2.865h.844c-.375 1.195-1.12 2.13-2.232 2.803a6.898 6.898 0 0 1-3.64 1.011 6.89 6.89 0 0 1-3.453-.923c-1.084-.615-1.972-1.485-2.663-2.61-.692-1.125-1.037-2.49-1.037-4.096 0-2.273.668-4.163 2.004-5.669 1.335-1.506 3.005-2.259 5.01-2.259 1.886 0 3.345.575 4.376 1.723 1.031 1.149 1.576 2.39 1.635 3.727zm-3.076-.703c.035-.27.053-.51.053-.721 0-1.031-.302-1.831-.906-2.4-.603-.568-1.344-.852-2.223-.852-2.133 0-3.405 1.324-3.815 3.973h6.89z" fill="#000"/></g></svg>